<svg width="240" height="55" viewBox="0 0 240 55" fill="none" xmlns="http://www.w3.org/2000/svg">
<path d="M81.027 43.1636C80.5711 43.1636 80.1571 42.8967 79.9679 42.4807L68.1064 16.4083C67.7546 15.6352 68.3181 14.7562 69.1655 14.7562H73.7857C74.2519 14.7562 74.6731 15.0352 74.8562 15.4651L83.7169 36.2704C84.045 37.0406 83.4815 37.8964 82.6464 37.8964H81.9278C81.0915 37.8964 80.5281 37.0386 80.8582 36.2681L89.7719 15.4628C89.9556 15.0341 90.3762 14.7562 90.8415 14.7562H95.1685C96.0158 14.7562 96.5793 15.6352 96.2276 16.4083L84.366 42.4807C84.1768 42.8967 83.7629 43.1636 83.3069 43.1636H81.027Z" fill="#0D0D0D"/>
<path d="M102.024 43.1636C101.381 43.1636 100.86 42.6409 100.86 41.9961V15.9237C100.86 15.2789 101.381 14.7562 102.024 14.7562H106.187C106.83 14.7562 107.352 15.2789 107.352 15.9237V41.9961C107.352 42.6409 106.83 43.1636 106.187 43.1636H102.024ZM104.106 9.54822C103.004 9.54822 102.08 9.1734 101.332 8.42376C100.624 7.67412 100.27 6.74694 100.27 5.64221C100.27 4.53747 100.624 3.61029 101.332 2.86065C102.08 2.11101 103.004 1.73619 104.106 1.73619C105.247 1.73619 106.171 2.11101 106.879 2.86065C107.588 3.61029 107.942 4.53747 107.942 5.64221C107.942 6.74694 107.588 7.67412 106.879 8.42376C106.171 9.1734 105.247 9.54822 104.106 9.54822Z" fill="#0D0D0D"/>
<path d="M129.799 43.7554C127.635 43.7554 125.707 43.3017 124.015 42.3942C122.324 41.4473 120.986 40.165 120.002 38.5474C119.058 36.9298 118.586 35.0951 118.586 33.0435V24.8764C118.586 22.8247 119.078 20.9901 120.061 19.3724C121.045 17.7548 122.383 16.4922 124.074 15.5848C125.766 14.6379 127.674 14.1644 129.799 14.1644C132.356 14.1644 134.657 14.8351 136.703 16.1766C138.788 17.4786 140.421 19.2541 141.601 21.503C142.821 23.7124 143.43 26.2178 143.43 29.0191C143.43 31.7809 142.821 34.2863 141.601 36.5352C140.421 38.7447 138.788 40.5004 136.703 41.8024C134.657 43.1044 132.356 43.7554 129.799 43.7554ZM115.796 43.1636C115.153 43.1636 114.632 42.6409 114.632 41.9961V1.72001C114.632 1.07524 115.153 0.552553 115.796 0.552553H119.96C120.602 0.552553 121.124 1.07524 121.124 1.72001V21.6447C121.124 21.7079 121.119 21.7711 121.108 21.8334L120.033 28.4169C120.013 28.5414 120.013 28.6683 120.033 28.7928L121.109 35.4362C121.119 35.498 121.124 35.5606 121.124 35.6233V41.9961C121.124 42.6409 120.602 43.1636 119.96 43.1636H115.796ZM128.736 37.6005C130.31 37.6005 131.687 37.2454 132.867 36.5352C134.087 35.7856 135.031 34.7598 135.7 33.4577C136.408 32.1557 136.762 30.6565 136.762 28.9599C136.762 27.2634 136.408 25.7641 135.7 24.4621C135.031 23.1601 134.087 22.154 132.867 21.4438C131.687 20.6942 130.31 20.3193 128.736 20.3193C127.163 20.3193 125.766 20.6942 124.546 21.4438C123.327 22.154 122.383 23.1601 121.714 24.4621C121.045 25.7641 120.711 27.2634 120.711 28.9599C120.711 30.6565 121.045 32.1557 121.714 33.4577C122.383 34.7598 123.327 35.7856 124.546 36.5352C125.766 37.2454 127.163 37.6005 128.736 37.6005Z" fill="#0D0D0D"/>
<path d="M162.024 43.7554C159.191 43.7554 156.634 43.1241 154.352 41.8616C152.11 40.5596 150.32 38.7841 148.982 36.5352C147.684 34.2863 147.035 31.7612 147.035 28.9599C147.035 26.1586 147.684 23.6533 148.982 21.4438C150.281 19.1949 152.031 17.4194 154.234 16.1174C156.477 14.8154 158.955 14.1644 161.67 14.1644C164.306 14.1644 166.627 14.776 168.633 15.9991C170.679 17.2222 172.273 18.899 173.413 21.0295C174.594 23.1601 175.184 25.5865 175.184 28.3089C175.184 28.7824 175.145 29.2756 175.066 29.7885C175.049 29.9954 175.024 30.2137 174.992 30.4433C174.914 30.9944 174.43 31.3864 173.875 31.3864H152.743C152.1 31.3864 151.579 30.8637 151.579 30.2189V27.2275C151.579 26.5827 152.1 26.06 152.743 26.06H169.661C170.289 26.06 170.581 26.8391 170.11 27.2541C169.682 27.6314 168.998 27.3438 168.918 26.7777C168.757 25.6473 168.466 24.6584 168.043 23.8111C167.453 22.6274 166.607 21.72 165.506 21.0887C164.444 20.4574 163.126 20.1418 161.552 20.1418C159.9 20.1418 158.464 20.4969 157.244 21.2071C156.024 21.9173 155.08 22.9234 154.411 24.2254C153.743 25.4879 153.408 27.0069 153.408 28.7824C153.408 30.5578 153.762 32.1163 154.47 33.4577C155.179 34.7992 156.182 35.8448 157.48 36.5944C158.778 37.3046 160.273 37.6597 161.965 37.6597C163.421 37.6597 164.758 37.4032 165.978 36.8903C166.833 36.5418 167.598 36.0839 168.272 35.5167C168.789 35.0813 169.568 35.0515 170.042 35.5338L172.546 38.0805C172.97 38.512 172.998 39.2016 172.571 39.6305C171.344 40.8635 169.914 41.8242 168.279 42.5126C166.312 43.3411 164.227 43.7554 162.024 43.7554Z" fill="#0D0D0D"/>
<path d="M184.697 43.1636C184.054 43.1636 183.533 42.6409 183.533 41.9961V11.6196C183.533 9.56794 184.025 7.65439 185.009 5.87893C185.992 4.10347 187.389 2.68311 189.198 1.61783C190.752 0.689492 192.528 0.151209 194.527 0.00298069C195.168 -0.0445794 195.69 0.483423 195.69 1.12819V4.88902C195.69 5.53379 195.166 6.04377 194.529 6.13423C193.21 6.32169 192.181 6.84814 191.441 7.71357C190.497 8.77885 190.025 10.0611 190.025 11.5604V41.9961C190.025 42.6409 189.503 43.1636 188.861 43.1636H184.697ZM177.911 20.6744C177.268 20.6744 176.747 20.1517 176.747 19.507V15.9237C176.747 15.2789 177.268 14.7562 177.911 14.7562H202.197C202.84 14.7562 203.361 15.2789 203.361 15.9237V19.507C203.361 20.1517 202.84 20.6744 202.197 20.6744H177.911ZM201.811 43.1636C201.168 43.1636 200.647 42.6409 200.647 41.9961V1.72001C200.647 1.07524 201.168 0.552553 201.811 0.552553H205.974C206.617 0.552553 207.138 1.07524 207.138 1.72001V41.9961C207.138 42.6409 206.617 43.1636 205.974 43.1636H201.811Z" fill="#0D0D0D"/>
<path d="M224.25 43.4595C223.782 43.4595 223.36 43.1787 223.178 42.7466L212.064 16.3782C211.74 15.6085 212.303 14.7562 213.137 14.7562H217.728C218.207 14.7562 218.636 15.0499 218.812 15.4964L226.409 34.8712C226.589 35.3293 226.252 35.825 225.761 35.825C225.265 35.825 224.928 35.3186 225.118 34.8587L233.153 15.4755C233.334 15.04 233.758 14.7562 234.228 14.7562H238.835C239.683 14.7562 240.247 15.638 239.892 16.4114L227.491 43.4595H224.25ZM216.899 55C216.039 55 215.476 54.0982 215.851 53.3228L222.853 38.8549C223.265 38.0039 224.462 37.9717 224.919 38.7992L227.491 43.4595L222.55 54.3173C222.361 54.7332 221.947 55 221.491 55H216.899Z" fill="#0D0D0D"/>
<path d="M6.18945 26.0586C6.08419 26.1852 5.96593 26.3004 5.84961 26.417C4.03936 28.2312 5.3016 31.4199 7.94629 31.4199H22.3398C23.3783 31.4202 24.0888 32.4685 23.7051 33.4336L18.708 52H8C3.58172 52 0 48.4183 0 44V11C0 6.58172 3.58172 3 8 3H25.3555L6.18945 26.0586Z" fill="#9FF205"/>
<path d="M41 3C45.4183 3 49 6.58172 49 11V44C49 48.4183 45.4183 52 41 52H23.5312L42.627 29.1729C42.7288 29.0512 42.843 28.9395 42.9551 28.8271C44.7656 27.0113 43.5016 23.8252 40.8584 23.8252H26.6865C25.6441 23.8251 24.9332 22.77 25.3242 21.8037L30.4043 3H41Z" fill="#39E8D1"/>
</svg>
